name GIL04_xslow1.mot
datacolumns 153
datarows 4
range 0.35000002 0.37500003
endheader

                time	           pelvis_tx	           pelvis_ty	           pelvis_tz	         pelvis_tilt	         pelvis_list	     pelvis_rotation	       hip_flexion_r	     hip_adduction_r	      hip_rotation_r	        knee_angle_r	       ankle_angle_r	    subtalar_angle_r	         mtp_angle_r	       hip_flexion_l	     hip_adduction_l	      hip_rotation_l	        knee_angle_l	       ankle_angle_l	    subtalar_angle_l	         mtp_angle_l	    lumbar_extension	      lumbar_bending	     lumbar_rotation	     ground_force_vx	     ground_force_vy	     ground_force_vz	     ground_force_px	     ground_force_py	     ground_force_pz	     ground_force_vx	     ground_force_vy	     ground_force_vz	     ground_force_px	     ground_force_py	     ground_force_pz	     ground_torque_x	     ground_torque_y	     ground_torque_z	     ground_torque_x	     ground_torque_y	     ground_torque_z	    ground_marker_px	    ground_marker_py	    ground_marker_pz	    ground_marker_px	    ground_marker_py	    ground_marker_pz	    ground_marker_px	    ground_marker_py	    ground_marker_pz	    ground_marker_px	    ground_marker_py	    ground_marker_pz	    ground_marker_px	    ground_marker_py	    ground_marker_pz	    ground_marker_px	    ground_marker_py	    ground_marker_pz	    ground_marker_px	    ground_marker_py	    ground_marker_pz	    ground_marker_px	    ground_marker_py	    ground_marker_pz	    ground_marker_px	    ground_marker_py	    ground_marker_pz	    ground_marker_px	    ground_marker_py	    ground_marker_pz	    ground_marker_px	    ground_marker_py	    ground_marker_pz	    ground_marker_px	    ground_marker_py	    ground_marker_pz	    ground_marker_px	    ground_marker_py	    ground_marker_pz	    ground_marker_px	    ground_marker_py	    ground_marker_pz	    ground_marker_px	    ground_marker_py	    ground_marker_pz	    ground_marker_px	    ground_marker_py	    ground_marker_pz	    ground_marker_px	    ground_marker_py	    ground_marker_pz	    ground_marker_px	    ground_marker_py	    ground_marker_pz	    ground_marker_px	    ground_marker_py	    ground_marker_pz	    ground_marker_px	    ground_marker_py	    ground_marker_pz	    ground_marker_px	    ground_marker_py	    ground_marker_pz	    ground_marker_px	    ground_marker_py	    ground_marker_pz	    ground_marker_px	    ground_marker_py	    ground_marker_pz	    ground_marker_px	    ground_marker_py	    ground_marker_pz	    ground_marker_px	    ground_marker_py	    ground_marker_pz	    ground_marker_px	    ground_marker_py	    ground_marker_pz	    ground_marker_px	    ground_marker_py	    ground_marker_pz	    ground_marker_px	    ground_marker_py	    ground_marker_pz	    ground_marker_px	    ground_marker_py	    ground_marker_pz	    ground_marker_px	    ground_marker_py	    ground_marker_pz	    ground_marker_px	    ground_marker_py	    ground_marker_pz	    ground_marker_px	    ground_marker_py	    ground_marker_pz	    ground_marker_px	    ground_marker_py	    ground_marker_pz	    ground_marker_px	    ground_marker_py	    ground_marker_pz	    ground_marker_px	    ground_marker_py	    ground_marker_pz	    ground_marker_px	    ground_marker_py	    ground_marker_pz	    ground_marker_px	    ground_marker_py	    ground_marker_pz	
          0.35000002	          0.80596089	          0.76241964	         -0.19453290	         -2.12552071	         -1.31274164	          2.22257280	         14.12895584	          6.48983479	         -1.78778231	        -10.99681377	         -1.17420685	          0.00000000	          0.00000000	        -11.98062801	         -2.22818089	        -14.56262112	        -25.86068916	        -21.09344101	          0.00000000	          0.00000000	        -19.78208733	         -0.42392644	          1.25781274	        -15.40203491	        277.73787622	         -6.28544990	          0.83661255	          0.00000000	         -0.16938414	          0.00000000	          0.00000000	          0.00000000	          1.16340784	          0.00000000	         -0.26681651	          0.00000000	         -0.82810468	          0.00000000	          0.00000000	          0.00000000	          0.00000000	          0.74878603	          0.69179034	         -0.19245948	          0.74284780	          0.69995600	         -0.12802924	          0.73741251	          0.69835353	         -0.25373048	          0.80715215	          0.38916713	         -0.16297255	          0.66078621	          0.39536408	         -0.25871924	          0.81179762	          0.05596173	         -0.17010424	          0.44689488	          0.14718798	         -0.25735307	          0.80596089	          0.76241964	         -0.19453290	          0.81011659	          0.76364487	         -0.09842335	          0.80180514	          0.76119441	         -0.29064244	          0.66287714	          0.80082917	         -0.16304667	          0.65720886	          0.79765046	         -0.21763782	          0.80896330	          0.38389862	         -0.11278080	          0.64697492	          0.39964506	         -0.30658284	          0.79874480	          0.38525546	         -0.21359551	          0.68029678	          0.38563561	         -0.20535231	          0.81020522	          0.05522351	         -0.13665025	          0.43793207	          0.15473396	         -0.28980264	          0.80420250	          0.06836236	         -0.19518493	          0.44822738	          0.15694237	         -0.22902954	          0.71967089	          1.15026629	         -0.20063095	          0.79795915	          1.09788787	         -0.13716574	          0.78933352	          1.09638453	         -0.26697692	          0.78685921	          1.08622324	         -0.20412970	          0.79193389	          0.94239247	         -0.20199367	          0.79516333	          0.46015888	         -0.02582545	          0.80518967	          0.46974531	         -0.32859159	          0.81733274	          0.53094012	         -0.08579069	          0.77141458	          0.53251815	         -0.25340453	          0.83864784	          0.45241943	         -0.11099706	          0.73940200	          0.45097354	         -0.24449123	          0.80453700	          0.15616941	         -0.05871873	          0.56962937	          0.17289378	         -0.31175214	          0.80259889	          0.21392441	         -0.11622114	          0.56540531	          0.25242245	         -0.28270230	          0.90591884	          0.03826873	         -0.18672599	          0.47517160	          0.05664057	         -0.25443372	
          0.35833338	          0.81102741	          0.76291323	         -0.19382347	         -1.98749542	         -1.13560975	          2.06658125	         13.50350189	          6.42752361	         -1.72908521	        -10.91242123	         -0.83518732	          0.00000000	          0.00000000	        -11.25747967	         -2.48769355	        -14.88701820	        -27.69694710	        -21.15031052	          0.00000000	          0.00000000	        -19.89313126	         -0.62003452	          1.54078937	        -15.35920947	        282.52108465	         -6.16081551	          0.83817352	          0.00000000	         -0.16940765	          0.00000000	          0.00000000	          0.00000000	          1.16662390	          0.00000000	         -0.26659975	          0.00000000	         -0.76741071	          0.00000000	          0.00000000	          0.00000000	          0.00000000	          0.75402379	          0.69217700	         -0.19211935	          0.74784392	          0.70013881	         -0.12768038	          0.74283862	          0.69881725	         -0.25340274	          0.80961156	          0.38913709	         -0.16261099	          0.67063069	          0.39420313	         -0.26092961	          0.81200022	          0.05594263	         -0.17015354	          0.45297801	          0.14963213	         -0.25894418	          0.81102741	          0.76291323	         -0.19382347	          0.81485784	          0.76392454	         -0.09761275	          0.80719703	          0.76190197	         -0.29003420	          0.66767681	          0.80100280	         -0.16254587	          0.66200161	          0.79781640	         -0.21713254	          0.81124133	          0.38382325	         -0.11241779	          0.65669715	          0.39868739	         -0.30873910	          0.80164498	          0.38551179	         -0.21339506	          0.69059151	          0.38383314	         -0.20773359	          0.81033719	          0.05517350	         -0.13670368	          0.44429955	          0.15709119	         -0.29149103	          0.80444485	          0.06842686	         -0.19528624	          0.45436943	          0.15971461	         -0.23078768	          0.72425020	          1.15071940	         -0.19987786	          0.80280840	          1.09832048	         -0.13649775	          0.79386187	          1.09692657	         -0.26636770	          0.79147828	          1.08670306	         -0.20348129	          0.79677051	          0.94287825	         -0.20149246	          0.79782635	          0.46018994	         -0.02538216	          0.81384420	          0.47111315	         -0.33037367	          0.82067156	          0.53091490	         -0.08529031	          0.77927595	          0.53255427	         -0.25450000	          0.84161985	          0.45224652	         -0.11057185	          0.74858856	          0.45052055	         -0.24635138	          0.80520421	          0.15601419	         -0.05865774	          0.57640445	          0.17289957	         -0.31295252	          0.80370981	          0.21388601	         -0.11616503	          0.57349575	          0.25247869	         -0.28442577	          0.90604478	          0.03819694	         -0.18670252	          0.47972727	          0.05841463	         -0.25567529	
          0.36666670	          0.81595063	          0.76335204	         -0.19314510	         -1.85421276	         -0.96075928	          1.92189074	         12.89979553	          6.36156702	         -1.63279128	        -10.84199238	         -0.49889091	          0.00000000	          0.00000000	        -10.47578526	         -2.73567653	        -15.11135387	        -29.56059074	        -20.99154091	          0.00000000	          0.00000000	        -20.02309990	         -0.80486262	          1.76351905	        -15.56431589	        287.58131601	         -6.09296690	          0.84013281	          0.00000000	         -0.16945505	          0.00000000	          0.00000000	          0.00000000	          1.16985388	          0.00000000	         -0.26637338	          0.00000000	         -0.69906812	          0.00000000	          0.00000000	          0.00000000	          0.00000000	          0.75909770	          0.69251120	         -0.19182110	          0.75270629	          0.70027220	         -0.12735151	          0.74810421	          0.69923544	         -0.25309196	          0.81201828	          0.38909096	         -0.16229440	          0.68065339	          0.39305314	         -0.26308060	          0.81218237	          0.05592790	         -0.17020608	          0.45948011	          0.15204561	         -0.26040894	          0.81595063	          0.76335204	         -0.19314510	          0.81947559	          0.76414621	         -0.09683444	          0.81242567	          0.76255786	         -0.28945577	          0.67236078	          0.80113107	         -0.16208340	          0.66667920	          0.79793096	         -0.21665369	          0.81351191	          0.38373938	         -0.11210098	          0.66665661	          0.39769518	         -0.31085658	          0.80436122	          0.38576889	         -0.21327211	          0.70103431	          0.38213840	         -0.20998515	          0.81046504	          0.05513278	         -0.13675958	          0.45107213	          0.15939978	         -0.29305050	          0.80467331	          0.06848476	         -0.19537584	          0.46103200	          0.16242708	         -0.23241439	          0.72875381	          1.15116882	         -0.19918594	          0.80755967	          1.09867346	         -0.13589413	          0.79840559	          1.09736812	         -0.26576436	          0.79604262	          1.08710706	         -0.20286453	          0.80148321	          0.94327497	         -0.20099685	          0.80053055	          0.46021920	         -0.02500058	          0.82267284	          0.47251213	         -0.33194047	          0.82401806	          0.53089160	         -0.08486262	          0.78724027	          0.53263187	         -0.25551328	          0.84455174	          0.45201814	         -0.11026945	          0.75791514	          0.45014077	         -0.24807805	          0.80589461	          0.15586701	         -0.05861510	          0.58353662	          0.17289570	         -0.31406140	          0.80495566	          0.21383257	         -0.11607786	          0.58193111	          0.25248793	         -0.28612024	          0.90617931	          0.03812619	         -0.18667915	          0.48503810	          0.06029170	         -0.25707889	
          0.37500003	          0.82071567	          0.76373911	         -0.19249780	         -1.72442150	         -0.79773498	          1.79911947	         12.31647301	          6.29983807	         -1.51384044	        -10.78188705	         -0.16633867	          0.00000000	          0.00000000	         -9.63743687	         -2.97989392	        -15.22008514	        -31.43237495	        -20.59647369	          0.00000000	          0.00000000	        -20.15573502	         -1.02149332	          1.91814590	        -15.98468510	        292.51337898	         -6.02552597	          0.84219379	          0.00000000	         -0.16951520	          0.00000000	          0.00000000	          0.00000000	          1.17306726	          0.00000000	         -0.26614764	          0.00000000	         -0.63174347	          0.00000000	          0.00000000	          0.00000000	          0.00000000	          0.76395929	          0.69279087	         -0.19152956	          0.75743550	          0.70036608	         -0.12702118	          0.75318241	          0.69960231	         -0.25277585	          0.81436270	          0.38903350	         -0.16201732	          0.69082308	          0.39194342	         -0.26513961	          0.81234342	          0.05591662	         -0.17025553	          0.46644068	          0.15438300	         -0.26172802	          0.82071567	          0.76373911	         -0.19249780	          0.82397604	          0.76432461	         -0.09609542	          0.81745523	          0.76315355	         -0.28890020	          0.67691916	          0.80121434	         -0.16166407	          0.67124057	          0.79799032	         -0.21620548	          0.81576508	          0.38364792	         -0.11182491	          0.67682713	          0.39669976	         -0.31290457	          0.80670238	          0.38570422	         -0.21294323	          0.71146154	          0.38062170	         -0.21213913	          0.81058717	          0.05510017	         -0.13681157	          0.45826462	          0.16163561	         -0.29445112	          0.80488098	          0.06847975	         -0.19547607	          0.46808353	          0.16503774	         -0.23387146	          0.73321950	          1.15155125	         -0.19851080	          0.81212622	          1.09900308	         -0.13544761	          0.80283666	          1.09765244	         -0.26516744	          0.80055398	          1.08743870	         -0.20227529	          0.80592090	          0.94358248	         -0.20041341	          0.80326748	          0.46024668	         -0.02467121	          0.83166498	          0.47395656	         -0.33326209	          0.82758433	          0.53075218	         -0.08477227	          0.79534709	          0.53277940	         -0.25641605	          0.84735662	          0.45182955	         -0.10996370	          0.76729369	          0.44980898	         -0.24966747	          0.80660069	          0.15572810	         -0.05858376	          0.59102124	          0.17291109	         -0.31512889	          0.80628210	          0.21369031	         -0.11601000	          0.59059966	          0.25246903	         -0.28777561	          0.90631974	          0.03805685	         -0.18665330	          0.49120805	          0.06225940	         -0.25870150	
